<mxfile host="65bd71144e">
    <diagram id="4FohTUvFMgtyWmdWMe6a" name="Page-1">
        <mxGraphModel dx="858" dy="202" grid="0" gridSize="10" guides="1" tooltips="1" connect="1" arrows="1" fold="1" page="0" pageScale="1" pageWidth="827" pageHeight="1169" math="0" shadow="0">
            <root>
                <mxCell id="0"/>
                <mxCell id="1" parent="0"/>
                <mxCell id="3" value="" style="group;rotation=90;" parent="1" vertex="1" connectable="0">
                    <mxGeometry x="660" y="1057" width="40" height="15" as="geometry"/>
                </mxCell>
                <mxCell id="4" value="" style="line;strokeWidth=1;rotatable=1;dashed=0;labelPosition=right;align=left;verticalAlign=middle;spacingTop=0;spacingLeft=6;points=[];portConstraint=eastwest;movable=1;resizable=1;deletable=1;editable=1;connectable=1;rotation=90;" parent="3" vertex="1">
                    <mxGeometry x="4" y="-1" width="32" height="10" as="geometry"/>
                </mxCell>
                <mxCell id="5" value="" style="ellipse;whiteSpace=wrap;html=1;aspect=fixed;movable=1;resizable=1;rotatable=1;deletable=1;editable=1;connectable=1;rotation=90;" parent="3" vertex="1">
                    <mxGeometry x="16" y="20" width="8" height="8" as="geometry"/>
                </mxCell>
                <mxCell id="6" value="" style="group;rotation=90;" parent="1" vertex="1" connectable="0">
                    <mxGeometry x="600" y="1057" width="40" height="15" as="geometry"/>
                </mxCell>
                <mxCell id="7" value="" style="line;strokeWidth=1;rotatable=1;dashed=0;labelPosition=right;align=left;verticalAlign=middle;spacingTop=0;spacingLeft=6;points=[];portConstraint=eastwest;movable=1;resizable=1;deletable=1;editable=1;connectable=1;rotation=90;" parent="6" vertex="1">
                    <mxGeometry x="4" y="-1" width="32" height="10" as="geometry"/>
                </mxCell>
                <mxCell id="8" value="" style="ellipse;whiteSpace=wrap;html=1;aspect=fixed;movable=1;resizable=1;rotatable=1;deletable=1;editable=1;connectable=1;rotation=90;" parent="6" vertex="1">
                    <mxGeometry x="16" y="20" width="8" height="8" as="geometry"/>
                </mxCell>
                <mxCell id="9" value="" style="group;rotation=90;" parent="1" vertex="1" connectable="0">
                    <mxGeometry x="630" y="1057" width="40" height="15" as="geometry"/>
                </mxCell>
                <mxCell id="10" value="" style="line;strokeWidth=1;rotatable=1;dashed=0;labelPosition=right;align=left;verticalAlign=middle;spacingTop=0;spacingLeft=6;points=[];portConstraint=eastwest;movable=1;resizable=1;deletable=1;editable=1;connectable=1;rotation=90;" parent="9" vertex="1">
                    <mxGeometry x="4" y="-1" width="32" height="10" as="geometry"/>
                </mxCell>
                <mxCell id="11" value="" style="ellipse;whiteSpace=wrap;html=1;aspect=fixed;movable=1;resizable=1;rotatable=1;deletable=1;editable=1;connectable=1;rotation=90;" parent="9" vertex="1">
                    <mxGeometry x="16" y="20" width="8" height="8" as="geometry"/>
                </mxCell>
                <mxCell id="12" value="" style="group;rotation=-180;" parent="1" vertex="1" connectable="0">
                    <mxGeometry x="130" y="787" width="40" height="15" as="geometry"/>
                </mxCell>
                <mxCell id="13" value="" style="line;strokeWidth=1;rotatable=1;dashed=0;labelPosition=right;align=left;verticalAlign=middle;spacingTop=0;spacingLeft=6;points=[];portConstraint=eastwest;movable=1;resizable=1;deletable=1;editable=1;connectable=1;rotation=-180;" parent="12" vertex="1">
                    <mxGeometry x="8" y="3" width="32" height="10" as="geometry"/>
                </mxCell>
                <mxCell id="14" value="" style="ellipse;whiteSpace=wrap;html=1;aspect=fixed;movable=1;resizable=1;rotatable=1;deletable=1;editable=1;connectable=1;rotation=-180;fillColor=#000000;" parent="12" vertex="1">
                    <mxGeometry y="3" width="8" height="8" as="geometry"/>
                </mxCell>
                <mxCell id="15" value="PuntoInteresse" style="whiteSpace=wrap;html=1;align=center;" parent="1" vertex="1">
                    <mxGeometry x="590" y="1007" width="100" height="40" as="geometry"/>
                </mxCell>
                <mxCell id="16" value="Riferire" style="shape=rhombus;perimeter=rhombusPerimeter;whiteSpace=wrap;html=1;align=center;" parent="1" vertex="1">
                    <mxGeometry x="580" y="877" width="120" height="60" as="geometry"/>
                </mxCell>
                <mxCell id="17" value="Registrare" style="shape=rhombus;perimeter=rhombusPerimeter;whiteSpace=wrap;html=1;align=center;" parent="1" vertex="1">
                    <mxGeometry x="380" y="762" width="110" height="50" as="geometry"/>
                </mxCell>
                <mxCell id="18" value="" style="endArrow=none;html=1;rounded=0;exitX=0.5;exitY=0;exitDx=0;exitDy=0;entryX=0.5;entryY=1;entryDx=0;entryDy=0;" parent="1" source="15" target="16" edge="1">
                    <mxGeometry relative="1" as="geometry">
                        <mxPoint x="710" y="977" as="sourcePoint"/>
                        <mxPoint x="870" y="977" as="targetPoint"/>
                    </mxGeometry>
                </mxCell>
                <mxCell id="19" value="" style="endArrow=none;html=1;rounded=0;exitX=0.5;exitY=1;exitDx=0;exitDy=0;entryX=0.5;entryY=0;entryDx=0;entryDy=0;" parent="1" source="115" target="16" edge="1">
                    <mxGeometry relative="1" as="geometry">
                        <mxPoint x="630" y="877" as="sourcePoint"/>
                        <mxPoint x="600" y="847" as="targetPoint"/>
                    </mxGeometry>
                </mxCell>
                <mxCell id="20" value="" style="endArrow=none;html=1;rounded=0;exitX=1;exitY=0.5;exitDx=0;exitDy=0;entryX=0;entryY=0.5;entryDx=0;entryDy=0;" parent="1" source="17" target="115" edge="1">
                    <mxGeometry relative="1" as="geometry">
                        <mxPoint x="470" y="827" as="sourcePoint"/>
                        <mxPoint x="630" y="827" as="targetPoint"/>
                    </mxGeometry>
                </mxCell>
                <mxCell id="21" value="" style="endArrow=none;html=1;rounded=0;exitX=1;exitY=0.5;exitDx=0;exitDy=0;entryX=0;entryY=0.5;entryDx=0;entryDy=0;" parent="1" source="115" target="99" edge="1">
                    <mxGeometry relative="1" as="geometry">
                        <mxPoint x="790" y="867" as="sourcePoint"/>
                        <mxPoint x="950" y="867" as="targetPoint"/>
                    </mxGeometry>
                </mxCell>
                <mxCell id="22" value="" style="endArrow=none;html=1;rounded=0;exitX=1;exitY=0.5;exitDx=0;exitDy=0;entryX=0;entryY=0.5;entryDx=0;entryDy=0;" parent="1" source="99" edge="1">
                    <mxGeometry relative="1" as="geometry">
                        <mxPoint x="880" y="997" as="sourcePoint"/>
                        <mxPoint x="1010.0000000000005" y="787" as="targetPoint"/>
                    </mxGeometry>
                </mxCell>
                <mxCell id="23" value="Lavorare" style="shape=rhombus;perimeter=rhombusPerimeter;whiteSpace=wrap;html=1;align=center;" parent="1" vertex="1">
                    <mxGeometry x="180" y="877" width="120" height="60" as="geometry"/>
                </mxCell>
                <mxCell id="24" value="" style="endArrow=none;html=1;rounded=0;exitX=0.5;exitY=0;exitDx=0;exitDy=0;entryX=0.5;entryY=1;entryDx=0;entryDy=0;" parent="1" source="58" target="23" edge="1">
                    <mxGeometry relative="1" as="geometry">
                        <mxPoint x="200" y="987" as="sourcePoint"/>
                        <mxPoint x="360" y="987" as="targetPoint"/>
                    </mxGeometry>
                </mxCell>
                <mxCell id="25" value="" style="endArrow=none;html=1;rounded=0;exitX=0.5;exitY=1;exitDx=0;exitDy=0;entryX=0.5;entryY=0;entryDx=0;entryDy=0;" parent="1" source="73" target="23" edge="1">
                    <mxGeometry relative="1" as="geometry">
                        <mxPoint x="310" y="897" as="sourcePoint"/>
                        <mxPoint x="470" y="897" as="targetPoint"/>
                    </mxGeometry>
                </mxCell>
                <mxCell id="26" value="" style="endArrow=none;html=1;rounded=0;exitX=1;exitY=0.5;exitDx=0;exitDy=0;entryX=0;entryY=0.5;entryDx=0;entryDy=0;" parent="1" source="73" target="17" edge="1">
                    <mxGeometry relative="1" as="geometry">
                        <mxPoint x="370" y="857" as="sourcePoint"/>
                        <mxPoint x="530" y="857" as="targetPoint"/>
                    </mxGeometry>
                </mxCell>
                <mxCell id="27" value="Monitorare" style="shape=rhombus;perimeter=rhombusPerimeter;whiteSpace=wrap;html=1;align=center;" parent="1" vertex="1">
                    <mxGeometry x="380" y="877" width="120" height="60" as="geometry"/>
                </mxCell>
                <mxCell id="28" value="" style="endArrow=none;html=1;rounded=0;exitX=1;exitY=1;exitDx=0;exitDy=0;entryX=0;entryY=0;entryDx=0;entryDy=0;" parent="1" source="73" target="27" edge="1">
                    <mxGeometry relative="1" as="geometry">
                        <mxPoint x="360" y="847" as="sourcePoint"/>
                        <mxPoint x="520" y="847" as="targetPoint"/>
                    </mxGeometry>
                </mxCell>
                <mxCell id="29" value="" style="endArrow=none;html=1;rounded=0;exitX=1;exitY=1;exitDx=0;exitDy=0;entryX=0;entryY=0;entryDx=0;entryDy=0;" parent="1" source="27" target="15" edge="1">
                    <mxGeometry relative="1" as="geometry">
                        <mxPoint x="470" y="977" as="sourcePoint"/>
                        <mxPoint x="630" y="977" as="targetPoint"/>
                    </mxGeometry>
                </mxCell>
                <mxCell id="30" value="CategoriaParametriClimatici" style="whiteSpace=wrap;html=1;align=center;" parent="1" vertex="1">
                    <mxGeometry x="1010" y="767" width="180" height="40" as="geometry"/>
                </mxCell>
                <mxCell id="31" value="(0,1)" style="text;strokeColor=none;fillColor=none;spacingLeft=4;spacingRight=4;overflow=hidden;rotatable=0;points=[[0,0.5],[1,0.5]];portConstraint=eastwest;fontSize=12;" parent="1" vertex="1">
                    <mxGeometry x="200" y="977" width="40" height="30" as="geometry"/>
                </mxCell>
                <mxCell id="32" value="(0,N)" style="text;strokeColor=none;fillColor=none;spacingLeft=4;spacingRight=4;overflow=hidden;rotatable=0;points=[[0,0.5],[1,0.5]];portConstraint=eastwest;fontSize=12;" parent="1" vertex="1">
                    <mxGeometry x="200" y="807" width="40" height="30" as="geometry"/>
                </mxCell>
                <mxCell id="33" value="(0,N)" style="text;strokeColor=none;fillColor=none;spacingLeft=4;spacingRight=4;overflow=hidden;rotatable=0;points=[[0,0.5],[1,0.5]];portConstraint=eastwest;fontSize=12;" parent="1" vertex="1">
                    <mxGeometry x="280" y="807" width="40" height="30" as="geometry"/>
                </mxCell>
                <mxCell id="34" value="(0,N)" style="text;strokeColor=none;fillColor=none;spacingLeft=4;spacingRight=4;overflow=hidden;rotatable=0;points=[[0,0.5],[1,0.5]];portConstraint=eastwest;fontSize=12;" parent="1" vertex="1">
                    <mxGeometry x="550" y="997" width="40" height="30" as="geometry"/>
                </mxCell>
                <mxCell id="35" value="(0,N)" style="text;strokeColor=none;fillColor=none;spacingLeft=4;spacingRight=4;overflow=hidden;rotatable=0;points=[[0,0.5],[1,0.5]];portConstraint=eastwest;fontSize=12;" parent="1" vertex="1">
                    <mxGeometry x="315" y="757" width="40" height="30" as="geometry"/>
                </mxCell>
                <mxCell id="36" value="(1,1)" style="text;strokeColor=none;fillColor=none;spacingLeft=4;spacingRight=4;overflow=hidden;rotatable=0;points=[[0,0.5],[1,0.5]];portConstraint=eastwest;fontSize=12;" parent="1" vertex="1">
                    <mxGeometry x="557.5" y="757" width="40" height="30" as="geometry"/>
                </mxCell>
                <mxCell id="37" value="(1,1)" style="text;strokeColor=none;fillColor=none;spacingLeft=4;spacingRight=4;overflow=hidden;rotatable=0;points=[[0,0.5],[1,0.5]];portConstraint=eastwest;fontSize=12;" parent="1" vertex="1">
                    <mxGeometry x="640" y="807" width="40" height="30" as="geometry"/>
                </mxCell>
                <mxCell id="38" value="(0,N)" style="text;strokeColor=none;fillColor=none;spacingLeft=4;spacingRight=4;overflow=hidden;rotatable=0;points=[[0,0.5],[1,0.5]];portConstraint=eastwest;fontSize=12;" parent="1" vertex="1">
                    <mxGeometry x="640" y="977" width="40" height="30" as="geometry"/>
                </mxCell>
                <mxCell id="39" value="(1,N)" style="text;strokeColor=none;fillColor=none;spacingLeft=4;spacingRight=4;overflow=hidden;rotatable=0;points=[[0,0.5],[1,0.5]];portConstraint=eastwest;fontSize=12;" parent="1" vertex="1">
                    <mxGeometry x="690" y="757" width="40" height="30" as="geometry"/>
                </mxCell>
                <mxCell id="40" value="(0,N)" style="text;strokeColor=none;fillColor=none;spacingLeft=4;spacingRight=4;overflow=hidden;rotatable=0;points=[[0,0.5],[1,0.5]];portConstraint=eastwest;fontSize=12;" parent="1" vertex="1">
                    <mxGeometry x="970" y="757" width="40" height="30" as="geometry"/>
                </mxCell>
                <mxCell id="41" value="" style="line;strokeWidth=1;rotatable=1;dashed=0;labelPosition=right;align=left;verticalAlign=middle;spacingTop=0;spacingLeft=6;points=[];portConstraint=eastwest;movable=1;resizable=1;deletable=1;editable=1;connectable=1;" parent="1" vertex="1">
                    <mxGeometry x="290" y="1007" width="32" height="10" as="geometry"/>
                </mxCell>
                <mxCell id="42" value="" style="ellipse;whiteSpace=wrap;html=1;aspect=fixed;movable=1;resizable=1;rotatable=1;deletable=1;editable=1;connectable=1;" parent="1" vertex="1">
                    <mxGeometry x="322" y="1008" width="8" height="8" as="geometry"/>
                </mxCell>
                <mxCell id="43" value="" style="group" parent="1" vertex="1" connectable="0">
                    <mxGeometry x="290" y="1019.5" width="40" height="15" as="geometry"/>
                </mxCell>
                <mxCell id="44" value="" style="line;strokeWidth=1;rotatable=1;dashed=0;labelPosition=right;align=left;verticalAlign=middle;spacingTop=0;spacingLeft=6;points=[];portConstraint=eastwest;movable=1;resizable=1;deletable=1;editable=1;connectable=1;" parent="43" vertex="1">
                    <mxGeometry y="2.5" width="32" height="10" as="geometry"/>
                </mxCell>
                <mxCell id="45" value="" style="ellipse;whiteSpace=wrap;html=1;aspect=fixed;movable=1;resizable=1;rotatable=1;deletable=1;editable=1;connectable=1;" parent="43" vertex="1">
                    <mxGeometry x="32" y="3.5" width="8" height="8" as="geometry"/>
                </mxCell>
                <mxCell id="46" value="" style="group" parent="1" vertex="1" connectable="0">
                    <mxGeometry x="290" y="1034.5" width="40" height="15" as="geometry"/>
                </mxCell>
                <mxCell id="47" value="" style="line;strokeWidth=1;rotatable=1;dashed=0;labelPosition=right;align=left;verticalAlign=middle;spacingTop=0;spacingLeft=6;points=[];portConstraint=eastwest;movable=1;resizable=1;deletable=1;editable=1;connectable=1;" parent="46" vertex="1">
                    <mxGeometry y="2.5" width="32" height="10" as="geometry"/>
                </mxCell>
                <mxCell id="48" value="" style="ellipse;whiteSpace=wrap;html=1;aspect=fixed;movable=1;resizable=1;rotatable=1;deletable=1;editable=1;connectable=1;" parent="46" vertex="1">
                    <mxGeometry x="32" y="3.5" width="8" height="8" as="geometry"/>
                </mxCell>
                <mxCell id="49" value="" style="group;rotation=90;" parent="1" vertex="1" connectable="0">
                    <mxGeometry x="177" y="1057" width="40" height="15" as="geometry"/>
                </mxCell>
                <mxCell id="50" value="" style="line;strokeWidth=1;rotatable=1;dashed=0;labelPosition=right;align=left;verticalAlign=middle;spacingTop=0;spacingLeft=6;points=[];portConstraint=eastwest;movable=1;resizable=1;deletable=1;editable=1;connectable=1;rotation=90;" parent="49" vertex="1">
                    <mxGeometry x="4" y="-1" width="32" height="10" as="geometry"/>
                </mxCell>
                <mxCell id="51" value="" style="ellipse;whiteSpace=wrap;html=1;aspect=fixed;movable=1;resizable=1;rotatable=1;deletable=1;editable=1;connectable=1;rotation=90;fillColor=#000000;" parent="49" vertex="1">
                    <mxGeometry x="16" y="20" width="8" height="8" as="geometry"/>
                </mxCell>
                <mxCell id="52" value="" style="group;rotation=90;" parent="1" vertex="1" connectable="0">
                    <mxGeometry x="260" y="1057" width="40" height="15" as="geometry"/>
                </mxCell>
                <mxCell id="53" value="" style="line;strokeWidth=1;rotatable=1;dashed=0;labelPosition=right;align=left;verticalAlign=middle;spacingTop=0;spacingLeft=6;points=[];portConstraint=eastwest;movable=1;resizable=1;deletable=1;editable=1;connectable=1;rotation=90;" parent="52" vertex="1">
                    <mxGeometry x="4" y="-1" width="32" height="10" as="geometry"/>
                </mxCell>
                <mxCell id="54" value="" style="ellipse;whiteSpace=wrap;html=1;aspect=fixed;movable=1;resizable=1;rotatable=1;deletable=1;editable=1;connectable=1;rotation=90;" parent="52" vertex="1">
                    <mxGeometry x="16" y="20" width="8" height="8" as="geometry"/>
                </mxCell>
                <mxCell id="55" value="" style="group;rotation=90;" parent="1" vertex="1" connectable="0">
                    <mxGeometry x="240" y="1057" width="40" height="15" as="geometry"/>
                </mxCell>
                <mxCell id="56" value="" style="line;strokeWidth=1;rotatable=1;dashed=0;labelPosition=right;align=left;verticalAlign=middle;spacingTop=0;spacingLeft=6;points=[];portConstraint=eastwest;movable=1;resizable=1;deletable=1;editable=1;connectable=1;rotation=90;" parent="55" vertex="1">
                    <mxGeometry x="4" y="-1" width="32" height="10" as="geometry"/>
                </mxCell>
                <mxCell id="57" value="" style="ellipse;whiteSpace=wrap;html=1;aspect=fixed;movable=1;resizable=1;rotatable=1;deletable=1;editable=1;connectable=1;rotation=90;" parent="55" vertex="1">
                    <mxGeometry x="16" y="20" width="8" height="8" as="geometry"/>
                </mxCell>
                <mxCell id="58" value="Operatore" style="whiteSpace=wrap;html=1;align=center;" parent="1" vertex="1">
                    <mxGeometry x="190" y="1007" width="100" height="40" as="geometry"/>
                </mxCell>
                <mxCell id="59" value="nome" style="text;strokeColor=none;fillColor=none;spacingLeft=4;spacingRight=4;overflow=hidden;rotatable=0;points=[[0,0.5],[1,0.5]];portConstraint=eastwest;fontSize=12;" parent="1" vertex="1">
                    <mxGeometry x="330" y="997" width="40" height="30" as="geometry"/>
                </mxCell>
                <mxCell id="60" value="cognome" style="text;strokeColor=none;fillColor=none;spacingLeft=4;spacingRight=4;overflow=hidden;rotatable=0;points=[[0,0.5],[1,0.5]];portConstraint=eastwest;fontSize=12;" parent="1" vertex="1">
                    <mxGeometry x="330" y="1012" width="70" height="25" as="geometry"/>
                </mxCell>
                <mxCell id="61" value="email" style="text;strokeColor=none;fillColor=none;spacingLeft=4;spacingRight=4;overflow=hidden;rotatable=0;points=[[0,0.5],[1,0.5]];portConstraint=eastwest;fontSize=12;" parent="1" vertex="1">
                    <mxGeometry x="330" y="1027" width="70" height="25" as="geometry"/>
                </mxCell>
                <mxCell id="62" value="CF" style="text;strokeColor=none;fillColor=none;spacingLeft=4;spacingRight=4;overflow=hidden;rotatable=0;points=[[0,0.5],[1,0.5]];portConstraint=eastwest;fontSize=12;direction=west;rotation=90;" parent="1" vertex="1">
                    <mxGeometry x="166" y="1107" width="65" height="25" as="geometry"/>
                </mxCell>
                <mxCell id="63" value="username" style="text;strokeColor=none;fillColor=none;spacingLeft=4;spacingRight=4;overflow=hidden;rotatable=0;points=[[0,0.5],[1,0.5]];portConstraint=eastwest;fontSize=12;direction=west;rotation=90;" parent="1" vertex="1">
                    <mxGeometry x="249" y="1107" width="70" height="25" as="geometry"/>
                </mxCell>
                <mxCell id="64" value="password" style="text;strokeColor=none;fillColor=none;spacingLeft=4;spacingRight=4;overflow=hidden;rotatable=0;points=[[0,0.5],[1,0.5]];portConstraint=eastwest;fontSize=12;direction=west;rotation=90;" parent="1" vertex="1">
                    <mxGeometry x="230" y="1107" width="70" height="25" as="geometry"/>
                </mxCell>
                <mxCell id="65" value="" style="group;rotation=-90;" parent="1" vertex="1" connectable="0">
                    <mxGeometry x="160" y="747" width="40" height="15" as="geometry"/>
                </mxCell>
                <mxCell id="66" value="" style="line;strokeWidth=1;rotatable=1;dashed=0;labelPosition=right;align=left;verticalAlign=middle;spacingTop=0;spacingLeft=6;points=[];portConstraint=eastwest;movable=1;resizable=1;deletable=1;editable=1;connectable=1;rotation=-90;" parent="65" vertex="1">
                    <mxGeometry x="4" y="7" width="32" height="10" as="geometry"/>
                </mxCell>
                <mxCell id="67" value="" style="ellipse;whiteSpace=wrap;html=1;aspect=fixed;movable=1;resizable=1;rotatable=1;deletable=1;editable=1;connectable=1;rotation=-90;" parent="65" vertex="1">
                    <mxGeometry x="17" y="-12" width="8" height="8" as="geometry"/>
                </mxCell>
                <mxCell id="68" value="nome" style="text;strokeColor=none;fillColor=none;spacingLeft=4;spacingRight=4;overflow=hidden;rotatable=0;points=[[0,0.5],[1,0.5]];portConstraint=eastwest;fontSize=12;" parent="1" vertex="1">
                    <mxGeometry x="160" y="714.5" width="40" height="27.5" as="geometry"/>
                </mxCell>
                <mxCell id="69" value="indirizzo" style="text;strokeColor=none;fillColor=none;spacingLeft=4;spacingRight=4;overflow=hidden;rotatable=0;points=[[0,0.5],[1,0.5]];portConstraint=eastwest;fontSize=12;" parent="1" vertex="1">
                    <mxGeometry x="215" y="713.25" width="60" height="30" as="geometry"/>
                </mxCell>
                <mxCell id="70" value="" style="group;rotation=-90;" parent="1" vertex="1" connectable="0">
                    <mxGeometry x="220" y="747" width="40" height="15" as="geometry"/>
                </mxCell>
                <mxCell id="71" value="" style="line;strokeWidth=1;rotatable=1;dashed=0;labelPosition=right;align=left;verticalAlign=middle;spacingTop=0;spacingLeft=6;points=[];portConstraint=eastwest;movable=1;resizable=1;deletable=1;editable=1;connectable=1;rotation=-90;" parent="70" vertex="1">
                    <mxGeometry x="4" y="7" width="32" height="10" as="geometry"/>
                </mxCell>
                <mxCell id="72" value="" style="ellipse;whiteSpace=wrap;html=1;aspect=fixed;movable=1;resizable=1;rotatable=1;deletable=1;editable=1;connectable=1;rotation=-90;" parent="70" vertex="1">
                    <mxGeometry x="16" y="-11.5" width="8" height="8" as="geometry"/>
                </mxCell>
                <mxCell id="73" value="CentroMonitoraggio" style="whiteSpace=wrap;html=1;align=center;" parent="1" vertex="1">
                    <mxGeometry x="165" y="767" width="150" height="40" as="geometry"/>
                </mxCell>
                <mxCell id="74" value="idCentroMonitoraggio" style="text;strokeColor=none;fillColor=none;spacingLeft=4;spacingRight=4;overflow=hidden;rotatable=0;points=[[0,0.5],[1,0.5]];portConstraint=eastwest;fontSize=12;" parent="1" vertex="1">
                    <mxGeometry y="780.13" width="130" height="28.75" as="geometry"/>
                </mxCell>
                <mxCell id="75" value="nome" style="text;strokeColor=none;fillColor=none;spacingLeft=4;spacingRight=4;overflow=hidden;rotatable=0;points=[[0,0.5],[1,0.5]];portConstraint=eastwest;fontSize=12;direction=west;rotation=90;" parent="1" vertex="1">
                    <mxGeometry x="588.5" y="1112" width="70" height="25" as="geometry"/>
                </mxCell>
                <mxCell id="76" value="timestamp" style="text;strokeColor=none;fillColor=none;spacingLeft=4;spacingRight=4;overflow=hidden;rotatable=0;points=[[0,0.5],[1,0.5]];portConstraint=eastwest;fontSize=12;" parent="1" vertex="1">
                    <mxGeometry x="635" y="707" width="70" height="30" as="geometry"/>
                </mxCell>
                <mxCell id="77" value="" style="group;rotation=-90;" parent="1" vertex="1" connectable="0">
                    <mxGeometry x="1020" y="737" width="40" height="15" as="geometry"/>
                </mxCell>
                <mxCell id="78" value="" style="line;strokeWidth=1;rotatable=1;dashed=0;labelPosition=right;align=left;verticalAlign=middle;spacingTop=0;spacingLeft=6;points=[];portConstraint=eastwest;movable=1;resizable=1;deletable=1;editable=1;connectable=1;rotation=-90;" parent="77" vertex="1">
                    <mxGeometry x="4" y="7" width="32" height="10" as="geometry"/>
                </mxCell>
                <mxCell id="79" value="" style="ellipse;whiteSpace=wrap;html=1;aspect=fixed;movable=1;resizable=1;rotatable=1;deletable=1;editable=1;connectable=1;rotation=-90;" parent="77" vertex="1">
                    <mxGeometry x="17" y="-12" width="8" height="8" as="geometry"/>
                </mxCell>
                <mxCell id="80" value="" style="group;rotation=-90;" parent="1" vertex="1" connectable="0">
                    <mxGeometry x="1080" y="734.5" width="40" height="15" as="geometry"/>
                </mxCell>
                <mxCell id="81" value="" style="line;strokeWidth=1;rotatable=1;dashed=0;labelPosition=right;align=left;verticalAlign=middle;spacingTop=0;spacingLeft=6;points=[];portConstraint=eastwest;movable=1;resizable=1;deletable=1;editable=1;connectable=1;rotation=-90;" parent="80" vertex="1">
                    <mxGeometry x="4" y="7" width="32" height="10" as="geometry"/>
                </mxCell>
                <mxCell id="82" value="" style="ellipse;whiteSpace=wrap;html=1;aspect=fixed;movable=1;resizable=1;rotatable=1;deletable=1;editable=1;connectable=1;rotation=-90;" parent="80" vertex="1">
                    <mxGeometry x="17" y="-12" width="8" height="8" as="geometry"/>
                </mxCell>
                <mxCell id="83" value="" style="group;rotation=-90;" parent="1" vertex="1" connectable="0">
                    <mxGeometry x="1140" y="737" width="40" height="15" as="geometry"/>
                </mxCell>
                <mxCell id="84" value="" style="line;strokeWidth=1;rotatable=1;dashed=0;labelPosition=right;align=left;verticalAlign=middle;spacingTop=0;spacingLeft=6;points=[];portConstraint=eastwest;movable=1;resizable=1;deletable=1;editable=1;connectable=1;rotation=-90;" parent="83" vertex="1">
                    <mxGeometry x="4" y="7" width="32" height="10" as="geometry"/>
                </mxCell>
                <mxCell id="85" value="" style="ellipse;whiteSpace=wrap;html=1;aspect=fixed;movable=1;resizable=1;rotatable=1;deletable=1;editable=1;connectable=1;rotation=-90;" parent="83" vertex="1">
                    <mxGeometry x="17" y="-12" width="8" height="8" as="geometry"/>
                </mxCell>
                <mxCell id="86" value="nome" style="text;strokeColor=none;fillColor=none;spacingLeft=4;spacingRight=4;overflow=hidden;rotatable=0;points=[[0,0.5],[1,0.5]];portConstraint=eastwest;fontSize=12;" parent="1" vertex="1">
                    <mxGeometry x="1020" y="696.5" width="70" height="30" as="geometry"/>
                </mxCell>
                <mxCell id="87" value="descrizione" style="text;strokeColor=none;fillColor=none;spacingLeft=4;spacingRight=4;overflow=hidden;rotatable=0;points=[[0,0.5],[1,0.5]];portConstraint=eastwest;fontSize=12;" parent="1" vertex="1">
                    <mxGeometry x="1070" y="696.5" width="80" height="30.5" as="geometry"/>
                </mxCell>
                <mxCell id="88" value="unitàMisura" style="text;strokeColor=none;fillColor=none;spacingLeft=4;spacingRight=4;overflow=hidden;rotatable=0;points=[[0,0.5],[1,0.5]];portConstraint=eastwest;fontSize=12;" parent="1" vertex="1">
                    <mxGeometry x="1150" y="700.5" width="90" height="26.5" as="geometry"/>
                </mxCell>
                <mxCell id="89" value="" style="group;rotation=-120;" parent="1" vertex="1" connectable="0">
                    <mxGeometry x="780" y="747" width="40" height="15" as="geometry"/>
                </mxCell>
                <mxCell id="90" value="" style="line;strokeWidth=1;rotatable=1;dashed=0;labelPosition=right;align=left;verticalAlign=middle;spacingTop=0;spacingLeft=6;points=[];portConstraint=eastwest;movable=1;resizable=1;deletable=1;editable=1;connectable=1;rotation=-120;" parent="89" vertex="1">
                    <mxGeometry x="6" y="6" width="32" height="10" as="geometry"/>
                </mxCell>
                <mxCell id="91" value="" style="ellipse;whiteSpace=wrap;html=1;aspect=fixed;movable=1;resizable=1;rotatable=1;deletable=1;editable=1;connectable=1;rotation=-120;" parent="89" vertex="1">
                    <mxGeometry x="9" y="-10" width="8" height="8" as="geometry"/>
                </mxCell>
                <mxCell id="92" value="punteggio" style="text;html=1;align=center;verticalAlign=middle;whiteSpace=wrap;rounded=0;" parent="1" vertex="1">
                    <mxGeometry x="810" y="689.5" width="60" height="30" as="geometry"/>
                </mxCell>
                <mxCell id="93" value="" style="group;rotation=-50;" parent="1" vertex="1" connectable="0">
                    <mxGeometry x="860" y="747" width="40" height="15" as="geometry"/>
                </mxCell>
                <mxCell id="94" value="" style="line;strokeWidth=1;rotatable=1;dashed=0;labelPosition=right;align=left;verticalAlign=middle;spacingTop=0;spacingLeft=6;points=[];portConstraint=eastwest;movable=1;resizable=1;deletable=1;editable=1;connectable=1;rotation=-50;" parent="93" vertex="1">
                    <mxGeometry x="1" y="6" width="32" height="10" as="geometry"/>
                </mxCell>
                <mxCell id="95" value="" style="ellipse;whiteSpace=wrap;html=1;aspect=fixed;movable=1;resizable=1;rotatable=1;deletable=1;editable=1;connectable=1;rotation=-50;" parent="93" vertex="1">
                    <mxGeometry x="27" y="-8" width="8" height="8" as="geometry"/>
                </mxCell>
                <mxCell id="96" value="" style="group;rotation=-90;" parent="1" vertex="1" connectable="0">
                    <mxGeometry x="820" y="732" width="40" height="15" as="geometry"/>
                </mxCell>
                <mxCell id="97" value="" style="line;strokeWidth=1;rotatable=1;dashed=0;labelPosition=right;align=left;verticalAlign=middle;spacingTop=0;spacingLeft=6;points=[];portConstraint=eastwest;movable=1;resizable=1;deletable=1;editable=1;connectable=1;rotation=-90;" parent="96" vertex="1">
                    <mxGeometry x="4" y="7" width="32" height="10" as="geometry"/>
                </mxCell>
                <mxCell id="98" value="" style="ellipse;whiteSpace=wrap;html=1;aspect=fixed;movable=1;resizable=1;rotatable=1;deletable=1;editable=1;connectable=1;rotation=-90;" parent="96" vertex="1">
                    <mxGeometry x="17" y="-12" width="8" height="8" as="geometry"/>
                </mxCell>
                <mxCell id="99" value="valutare" style="shape=rhombus;perimeter=rhombusPerimeter;whiteSpace=wrap;html=1;align=center;" parent="1" vertex="1">
                    <mxGeometry x="780" y="757" width="120" height="60" as="geometry"/>
                </mxCell>
                <mxCell id="100" value="commento (0,1)" style="text;html=1;align=center;verticalAlign=middle;whiteSpace=wrap;rounded=0;" parent="1" vertex="1">
                    <mxGeometry x="890" y="712" width="90" height="25" as="geometry"/>
                </mxCell>
                <mxCell id="101" value="valoreMisurato" style="text;html=1;align=center;verticalAlign=middle;whiteSpace=wrap;rounded=0;" parent="1" vertex="1">
                    <mxGeometry x="760" y="709.5" width="60" height="30" as="geometry"/>
                </mxCell>
                <mxCell id="102" value="" style="group;rotation=0;" parent="1" vertex="1" connectable="0">
                    <mxGeometry x="1190" y="777" width="40" height="15" as="geometry"/>
                </mxCell>
                <mxCell id="103" value="" style="line;strokeWidth=1;rotatable=1;dashed=0;labelPosition=right;align=left;verticalAlign=middle;spacingTop=0;spacingLeft=6;points=[];portConstraint=eastwest;movable=1;resizable=1;deletable=1;editable=1;connectable=1;rotation=0;" parent="102" vertex="1">
                    <mxGeometry y="2" width="32" height="10" as="geometry"/>
                </mxCell>
                <mxCell id="104" value="" style="ellipse;whiteSpace=wrap;html=1;aspect=fixed;movable=1;resizable=1;rotatable=1;deletable=1;editable=1;connectable=1;rotation=0;fillColor=#000000;" parent="102" vertex="1">
                    <mxGeometry x="31" y="5" width="8" height="8" as="geometry"/>
                </mxCell>
                <mxCell id="105" value="idCategoriaParametriClimatici" style="text;strokeColor=none;fillColor=none;spacingLeft=4;spacingRight=4;overflow=hidden;rotatable=0;points=[[0,0.5],[1,0.5]];portConstraint=eastwest;fontSize=12;" parent="1" vertex="1">
                    <mxGeometry x="1230" y="769.5" width="200" height="37.5" as="geometry"/>
                </mxCell>
                <mxCell id="106" value="" style="group;rotation=90;" parent="1" vertex="1" connectable="0">
                    <mxGeometry x="580" y="1060" width="40" height="15" as="geometry"/>
                </mxCell>
                <mxCell id="107" value="" style="line;strokeWidth=1;rotatable=1;dashed=0;labelPosition=right;align=left;verticalAlign=middle;spacingTop=0;spacingLeft=6;points=[];portConstraint=eastwest;movable=1;resizable=1;deletable=1;editable=1;connectable=1;rotation=90;" parent="106" vertex="1">
                    <mxGeometry x="4" y="-1" width="32" height="10" as="geometry"/>
                </mxCell>
                <mxCell id="108" value="" style="ellipse;whiteSpace=wrap;html=1;aspect=fixed;movable=1;resizable=1;rotatable=1;deletable=1;editable=1;connectable=1;fillColor=#000000;rotation=90;" parent="106" vertex="1">
                    <mxGeometry x="16" y="20" width="8" height="8" as="geometry"/>
                </mxCell>
                <mxCell id="109" value="" style="ellipse;whiteSpace=wrap;html=1;aspect=fixed;movable=1;resizable=1;rotatable=1;deletable=1;editable=1;connectable=1;rotation=-90;fillColor=#000000;" parent="1" vertex="1">
                    <mxGeometry x="729.5" y="741.5" width="8" height="8" as="geometry"/>
                </mxCell>
                <mxCell id="110" value="" style="endArrow=none;html=1;rounded=0;" parent="1" edge="1">
                    <mxGeometry relative="1" as="geometry">
                        <mxPoint x="360.00000000000045" y="787" as="sourcePoint"/>
                        <mxPoint x="730.0000000000005" y="746" as="targetPoint"/>
                        <Array as="points">
                            <mxPoint x="360" y="749"/>
                        </Array>
                    </mxGeometry>
                </mxCell>
                <mxCell id="111" value="" style="endArrow=none;html=1;rounded=0;" parent="1" edge="1">
                    <mxGeometry relative="1" as="geometry">
                        <mxPoint x="640.0000000000005" y="947" as="sourcePoint"/>
                        <mxPoint x="540.0000000000005" y="747" as="targetPoint"/>
                        <Array as="points">
                            <mxPoint x="540" y="947"/>
                        </Array>
                    </mxGeometry>
                </mxCell>
                <mxCell id="112" value="" style="group;rotation=-90;" parent="1" vertex="1" connectable="0">
                    <mxGeometry x="650" y="742" width="40" height="15" as="geometry"/>
                </mxCell>
                <mxCell id="113" value="" style="line;strokeWidth=1;rotatable=1;dashed=0;labelPosition=right;align=left;verticalAlign=middle;spacingTop=0;spacingLeft=6;points=[];portConstraint=eastwest;movable=1;resizable=1;deletable=1;editable=1;connectable=1;rotation=-90;" parent="112" vertex="1">
                    <mxGeometry x="4" y="7" width="32" height="10" as="geometry"/>
                </mxCell>
                <mxCell id="114" value="" style="ellipse;whiteSpace=wrap;html=1;aspect=fixed;movable=1;resizable=1;rotatable=1;deletable=1;editable=1;connectable=1;rotation=-90;" parent="112" vertex="1">
                    <mxGeometry x="17" y="-12" width="8" height="8" as="geometry"/>
                </mxCell>
                <mxCell id="115" value="Misurazione" style="whiteSpace=wrap;html=1;align=center;" parent="1" vertex="1">
                    <mxGeometry x="590" y="767" width="100" height="40" as="geometry"/>
                </mxCell>
                <mxCell id="116" value="Nazione" style="whiteSpace=wrap;html=1;align=center;" parent="1" vertex="1">
                    <mxGeometry x="1010" y="1007" width="100" height="40" as="geometry"/>
                </mxCell>
                <mxCell id="117" value="longitudine" style="text;strokeColor=none;fillColor=none;spacingLeft=4;spacingRight=4;overflow=hidden;rotatable=0;points=[[0,0.5],[1,0.5]];portConstraint=eastwest;fontSize=12;direction=west;rotation=90;" parent="1" vertex="1">
                    <mxGeometry x="615" y="1112" width="70" height="25" as="geometry"/>
                </mxCell>
                <mxCell id="118" value="latitudine" style="text;strokeColor=none;fillColor=none;spacingLeft=4;spacingRight=4;overflow=hidden;rotatable=0;points=[[0,0.5],[1,0.5]];portConstraint=eastwest;fontSize=12;direction=west;rotation=90;" parent="1" vertex="1">
                    <mxGeometry x="645" y="1112" width="70" height="25" as="geometry"/>
                </mxCell>
                <mxCell id="119" value="idPuntoInteresse" style="text;strokeColor=none;fillColor=none;spacingLeft=4;spacingRight=4;overflow=hidden;rotatable=0;points=[[0,0.5],[1,0.5]];portConstraint=eastwest;fontSize=12;direction=west;rotation=90;" parent="1" vertex="1">
                    <mxGeometry x="548.5" y="1125.5" width="105" height="23" as="geometry"/>
                </mxCell>
                <mxCell id="120" value="Appartenere" style="shape=rhombus;perimeter=rhombusPerimeter;whiteSpace=wrap;html=1;align=center;" parent="1" vertex="1">
                    <mxGeometry x="780" y="997" width="120" height="60" as="geometry"/>
                </mxCell>
                <mxCell id="121" value="" style="endArrow=none;html=1;rounded=0;startSize=14;endSize=14;sourcePerimeterSpacing=8;targetPerimeterSpacing=8;curved=1;exitX=1;exitY=0.5;exitDx=0;exitDy=0;entryX=0;entryY=0.5;entryDx=0;entryDy=0;" parent="1" source="15" target="120" edge="1">
                    <mxGeometry relative="1" as="geometry">
                        <mxPoint x="820" y="1110" as="sourcePoint"/>
                        <mxPoint x="980" y="1110" as="targetPoint"/>
                    </mxGeometry>
                </mxCell>
                <mxCell id="122" value="" style="endArrow=none;html=1;rounded=0;startSize=14;endSize=14;sourcePerimeterSpacing=8;targetPerimeterSpacing=8;curved=1;exitX=1;exitY=0.5;exitDx=0;exitDy=0;entryX=0;entryY=0.5;entryDx=0;entryDy=0;" parent="1" source="120" target="116" edge="1">
                    <mxGeometry relative="1" as="geometry">
                        <mxPoint x="880" y="1070" as="sourcePoint"/>
                        <mxPoint x="1040" y="1070" as="targetPoint"/>
                    </mxGeometry>
                </mxCell>
                <mxCell id="123" value="" style="group;rotation=0;" parent="1" vertex="1" connectable="0">
                    <mxGeometry x="1110" y="1030" width="40" height="15" as="geometry"/>
                </mxCell>
                <mxCell id="124" value="" style="line;strokeWidth=1;rotatable=1;dashed=0;labelPosition=right;align=left;verticalAlign=middle;spacingTop=0;spacingLeft=6;points=[];portConstraint=eastwest;movable=1;resizable=1;deletable=1;editable=1;connectable=1;rotation=0;" parent="123" vertex="1">
                    <mxGeometry x="1" y="3" width="32" height="10" as="geometry"/>
                </mxCell>
                <mxCell id="125" value="" style="ellipse;whiteSpace=wrap;html=1;aspect=fixed;movable=1;resizable=1;rotatable=1;deletable=1;editable=1;connectable=1;rotation=0;" parent="123" vertex="1">
                    <mxGeometry x="33" y="4" width="8" height="8" as="geometry"/>
                </mxCell>
                <mxCell id="126" value="codiceNazione" style="text;strokeColor=none;fillColor=none;spacingLeft=4;spacingRight=4;overflow=hidden;rotatable=0;points=[[0,0.5],[1,0.5]];portConstraint=eastwest;fontSize=12;" parent="1" vertex="1">
                    <mxGeometry x="1150" y="1000" width="90" height="30" as="geometry"/>
                </mxCell>
                <mxCell id="127" value="nome" style="text;strokeColor=none;fillColor=none;spacingLeft=4;spacingRight=4;overflow=hidden;rotatable=0;points=[[0,0.5],[1,0.5]];portConstraint=eastwest;fontSize=12;" parent="1" vertex="1">
                    <mxGeometry x="1150" y="1024.5" width="40" height="30" as="geometry"/>
                </mxCell>
                <mxCell id="128" value="(1,1)" style="text;strokeColor=none;fillColor=none;spacingLeft=4;spacingRight=4;overflow=hidden;rotatable=0;points=[[0,0.5],[1,0.5]];portConstraint=eastwest;fontSize=12;" parent="1" vertex="1">
                    <mxGeometry x="690" y="1000" width="40" height="30" as="geometry"/>
                </mxCell>
                <mxCell id="129" value="(0,N)" style="text;strokeColor=none;fillColor=none;spacingLeft=4;spacingRight=4;overflow=hidden;rotatable=0;points=[[0,0.5],[1,0.5]];portConstraint=eastwest;fontSize=12;" parent="1" vertex="1">
                    <mxGeometry x="970" y="997" width="40" height="30" as="geometry"/>
                </mxCell>
                <mxCell id="130" value="" style="group;rotation=0;" parent="1" vertex="1" connectable="0">
                    <mxGeometry x="1110" y="1007" width="40" height="15" as="geometry"/>
                </mxCell>
                <mxCell id="131" value="" style="line;strokeWidth=1;rotatable=1;dashed=0;labelPosition=right;align=left;verticalAlign=middle;spacingTop=0;spacingLeft=6;points=[];portConstraint=eastwest;movable=1;resizable=1;deletable=1;editable=1;connectable=1;rotation=0;" parent="130" vertex="1">
                    <mxGeometry y="2" width="32" height="10" as="geometry"/>
                </mxCell>
                <mxCell id="132" value="" style="ellipse;whiteSpace=wrap;html=1;aspect=fixed;movable=1;resizable=1;rotatable=1;deletable=1;editable=1;connectable=1;rotation=0;fillColor=#000000;" parent="130" vertex="1">
                    <mxGeometry x="31" y="5" width="8" height="8" as="geometry"/>
                </mxCell>
            </root>
        </mxGraphModel>
    </diagram>
</mxfile>